<svg width="25" height="24" viewBox="0 0 25 24" fill="none" xmlns="http://www.w3.org/2000/svg">
<g clip-path="url(#clip0_317_350)">
<path d="M3.16667 3.33325C2.45942 3.33325 1.78115 3.6142 1.28105 4.1143C0.780952 4.6144 0.5 5.29267 0.5 5.99992L0.5 17.9999C0.5 18.7072 0.780952 19.3854 1.28105 19.8855C1.78115 20.3856 2.45942 20.6666 3.16667 20.6666H12.5V3.33325H3.16667Z" fill="#006233"/>
<path d="M21.8333 3.33325H12.5V20.6666H21.8333C22.5406 20.6666 23.2189 20.3856 23.719 19.8855C24.219 19.3854 24.5 18.7072 24.5 17.9999V5.99992C24.5 5.29267 24.219 4.6144 23.719 4.1143C23.2189 3.6142 22.5406 3.33325 21.8333 3.33325Z" fill="#EEEEEE"/>
<path d="M13.8334 15.9999C11.6234 15.9999 9.83336 14.2099 9.83336 11.9999C9.83336 9.79057 11.6234 7.9999 13.8334 7.9999C14.7067 7.9999 15.5134 8.28323 16.1714 8.75857C15.7126 8.23672 15.1478 7.81869 14.5148 7.53233C13.8817 7.24596 13.1948 7.09787 12.5 7.0979C11.1999 7.0979 9.95309 7.61436 9.03378 8.53366C8.11448 9.45297 7.59802 10.6998 7.59802 11.9999C7.59793 12.6437 7.72466 13.2812 7.97097 13.876C8.21728 14.4708 8.57835 15.0113 9.03355 15.4666C9.48875 15.9218 10.0292 16.283 10.624 16.5294C11.2187 16.7758 11.8562 16.9026 12.5 16.9026C13.9634 16.9026 15.2734 16.2579 16.1714 15.2412C15.4917 15.7348 14.6733 16.0003 13.8334 15.9999Z" fill="#D20F34"/>
<path d="M17.368 12.1534L15.7414 12.5281L15.5947 14.1901L14.736 12.7594L13.1094 13.1334L14.2054 11.8747L13.3474 10.4434L14.8827 11.0967L15.9787 9.8374L15.832 11.5001L17.368 12.1534Z" fill="#D20F34"/>
</g>
<defs>
<clipPath id="clip0_317_350">
<rect width="24" height="24" fill="white" transform="translate(0.5)"/>
</clipPath>
</defs>
</svg>
