<svg width="25" height="29" viewBox="0 0 25 29" fill="none" xmlns="http://www.w3.org/2000/svg">
<path d="M3.2 18.4V22.6C3.2 23.2365 3.45286 23.847 3.90294 24.2971C4.35303 24.7471 4.96348 25 5.6 25H20C20.6365 25 21.247 24.7471 21.6971 24.2971C22.1471 23.847 22.4 23.2365 22.4 22.6V18.4M2 15.4V14.2C2 13.5635 2.25286 12.953 2.70294 12.5029C3.15303 12.0529 3.76348 11.8 4.4 11.8H21.2C21.8365 11.8 22.447 12.0529 22.8971 12.5029C23.3471 12.953 23.6 13.5635 23.6 14.2V15.4M12.8 8.2V11.8M12.8 8.2C14.3144 8.2 15.2 7.0384 15.2 5.05C15.2 3.0616 12.8 1 12.8 1C12.8 1 10.4 3.0616 10.4 5.05C10.4 7.0384 11.2856 8.2 12.8 8.2Z" stroke="#A8ADAF" stroke-width="1.5" stroke-linecap="round" stroke-linejoin="round"/>
<path d="M2 15.4004C2 16.3552 2.37928 17.2708 3.05442 17.946C3.72955 18.6211 4.64522 19.0004 5.6 19.0004C6.55478 19.0004 7.47045 18.6211 8.14558 17.946C8.82072 17.2708 9.2 16.3552 9.2 15.4004C9.2 16.3552 9.57928 17.2708 10.2544 17.946C10.9295 18.6211 11.8452 19.0004 12.8 19.0004C13.7548 19.0004 14.6705 18.6211 15.3456 17.946C16.0207 17.2708 16.4 16.3552 16.4 15.4004C16.4 16.3552 16.7793 17.2708 17.4544 17.946C18.1295 18.6211 19.0452 19.0004 20 19.0004C20.9548 19.0004 21.8705 18.6211 22.5456 17.946C23.2207 17.2708 23.6 16.3552 23.6 15.4004" stroke="#A8ADAF" stroke-width="1.5" stroke-linecap="round" stroke-linejoin="round"/>
</svg>
