<svg width="14" height="14" viewBox="0 0 14 14" fill="none" xmlns="http://www.w3.org/2000/svg">
<path d="M13.125 6.23438H12.4633L10.9151 2.75133C10.8549 2.61606 10.7568 2.50114 10.6327 2.42049C10.5085 2.33983 10.3637 2.29689 10.2156 2.29688H3.78437C3.63633 2.29689 3.49147 2.33983 3.36733 2.42049C3.24319 2.50114 3.14509 2.61606 3.08492 2.75133L1.53672 6.23438H0.875C0.787976 6.23438 0.704516 6.26895 0.642981 6.33048C0.581445 6.39202 0.546875 6.47548 0.546875 6.5625C0.546875 6.64952 0.581445 6.73298 0.642981 6.79452C0.704516 6.85605 0.787976 6.89062 0.875 6.89062H1.42188V11.375C1.42188 11.5781 1.50254 11.7728 1.64612 11.9164C1.7897 12.06 1.98444 12.1406 2.1875 12.1406H3.5C3.70306 12.1406 3.8978 12.06 4.04138 11.9164C4.18496 11.7728 4.26562 11.5781 4.26562 11.375V10.3906H9.73438V11.375C9.73438 11.5781 9.81504 11.7728 9.95862 11.9164C10.1022 12.06 10.2969 12.1406 10.5 12.1406H11.8125C12.0156 12.1406 12.2103 12.06 12.3539 11.9164C12.4975 11.7728 12.5781 11.5781 12.5781 11.375V6.89062H13.125C13.212 6.89062 13.2955 6.85605 13.357 6.79452C13.4186 6.73298 13.4531 6.64952 13.4531 6.5625C13.4531 6.47548 13.4186 6.39202 13.357 6.33048C13.2955 6.26895 13.212 6.23438 13.125 6.23438ZM3.6843 3.0182C3.69288 2.99883 3.70691 2.98236 3.72467 2.97081C3.74244 2.95925 3.76318 2.95311 3.78437 2.95312H10.2156C10.2368 2.95311 10.2576 2.95925 10.2753 2.97081C10.2931 2.98236 10.3071 2.99883 10.3157 3.0182L11.7452 6.23438H2.25477L3.6843 3.0182ZM3.60938 11.375C3.60938 11.404 3.59785 11.4318 3.57734 11.4523C3.55683 11.4729 3.52901 11.4844 3.5 11.4844H2.1875C2.15849 11.4844 2.13067 11.4729 2.11016 11.4523C2.08965 11.4318 2.07812 11.404 2.07812 11.375V10.3906H3.60938V11.375ZM11.8125 11.4844H10.5C10.471 11.4844 10.4432 11.4729 10.4227 11.4523C10.4021 11.4318 10.3906 11.404 10.3906 11.375V10.3906H11.9219V11.375C11.9219 11.404 11.9104 11.4318 11.8898 11.4523C11.8693 11.4729 11.8415 11.4844 11.8125 11.4844ZM11.9219 9.73438H2.07812V6.89062H11.9219V9.73438ZM3.17188 8.3125C3.17188 8.22548 3.20645 8.14202 3.26798 8.08048C3.32952 8.01894 3.41298 7.98438 3.5 7.98438H4.375C4.46202 7.98438 4.54548 8.01894 4.60702 8.08048C4.66855 8.14202 4.70312 8.22548 4.70312 8.3125C4.70312 8.39952 4.66855 8.48298 4.60702 8.54452C4.54548 8.60606 4.46202 8.64062 4.375 8.64062H3.5C3.41298 8.64062 3.32952 8.60606 3.26798 8.54452C3.20645 8.48298 3.17188 8.39952 3.17188 8.3125ZM9.29688 8.3125C9.29688 8.22548 9.33144 8.14202 9.39298 8.08048C9.45452 8.01894 9.53798 7.98438 9.625 7.98438H10.5C10.587 7.98438 10.6705 8.01894 10.732 8.08048C10.7936 8.14202 10.8281 8.22548 10.8281 8.3125C10.8281 8.39952 10.7936 8.48298 10.732 8.54452C10.6705 8.60606 10.587 8.64062 10.5 8.64062H9.625C9.53798 8.64062 9.45452 8.60606 9.39298 8.54452C9.33144 8.48298 9.29688 8.39952 9.29688 8.3125Z" fill="#263238" stroke="#263238" stroke-width="0.3"/>
</svg>
