<svg width="38" height="36" viewBox="0 0 38 36" fill="none" xmlns="http://www.w3.org/2000/svg">
<path d="M30.2589 30.7777L31.5521 28.1915L32.1986 27.5449L33.4917 30.1312L34.7849 32.7174L34.1383 34.0105L32.8452 35.3036H30.9055L30.2589 34.6571L29.6124 34.0105V33.3639V32.7174L30.2589 30.7777Z" fill="#4B4FE5"/>
<path d="M3.10348 8.79197L10.2156 0.386719H0.517242V2.97295H1.81036V5.55918V9.43853L3.10348 8.79197Z" fill="#4B4FE5"/>
<path d="M14.4824 8.91724H14.7324V8.66724V7.38878H17.3367V17.0853H14.7324V15.8052V15.5552H14.4824H5.68946C3.53916 15.5552 1.80174 13.8381 1.80174 11.7265V3.06003V2.81003H1.55174H0.25V0.25H10.0955V2.81003H8.79449H8.54449V3.06003V8.66724V8.91724H8.79449H14.4824ZM35.4385 21.4132V21.6632H35.6885H36.9918V24.2233H27.1486V21.6632H28.4481H28.6981V21.4132V15.806V15.556H28.4481H22.7594H22.5094V15.806V17.0868H19.9051V7.38955H22.5094V8.66801V8.91801H22.7594H31.5539C33.7017 8.91801 35.4385 10.6357 35.4385 12.7468V21.4132ZM32.0675 27.4848C32.1322 27.5876 32.2099 27.7119 32.2972 27.8537C32.5605 28.2811 32.9113 28.8664 33.2617 29.4992C33.6125 30.1328 33.9607 30.8099 34.2205 31.4215C34.485 32.044 34.6417 32.5627 34.6417 32.8938C34.6417 34.2957 33.4836 35.44 32.0481 35.44C30.6118 35.44 29.4538 34.2957 29.4538 32.8938C29.4538 32.5635 29.6125 32.0453 29.881 31.4227C30.1447 30.8112 30.4982 30.1342 30.8543 29.5006C31.21 28.8678 31.566 28.2825 31.8333 27.8551C31.9224 27.7127 32.0016 27.5879 32.0675 27.4848Z" stroke="#263238" stroke-width="0.5"/>
</svg>
