<svg width="25" height="24" viewBox="0 0 25 24" fill="none" xmlns="http://www.w3.org/2000/svg">
<path d="M12.9639 2.5C18.2104 2.5 22.4639 6.7535 22.4639 12C22.4639 17.2465 18.2104 21.5 12.9639 21.5C7.71737 21.5 3.46387 17.2465 3.46387 12C3.46387 6.7535 7.71737 2.5 12.9639 2.5ZM12.3389 6C11.9939 6 11.7139 6.28 11.7139 6.625V12.625C11.7139 12.97 11.9939 13.25 12.3389 13.25H16.3389C16.5046 13.25 16.6636 13.1842 16.7808 13.0669C16.898 12.9497 16.9639 12.7908 16.9639 12.625C16.9639 12.4592 16.898 12.3003 16.7808 12.1831C16.6636 12.0658 16.5046 12 16.3389 12H12.9639V6.625C12.9639 6.28 12.6839 6 12.3389 6Z" fill="#A8ADAF"/>
</svg>
