<svg width="24" height="24" viewBox="0 0 24 24" fill="none" xmlns="http://www.w3.org/2000/svg">
<g clip-path="url(#clip0_367_555)">
<path d="M12 0C5.37262 0 0 5.37262 0 12C0 18.6278 5.37262 24 12 24C18.6278 24 24 18.6278 24 12C24 5.37262 18.6278 0 12 0ZM12 22.5236C6.21037 22.5236 1.5 17.7896 1.5 12C1.5 6.21033 6.21037 1.49995 12 1.49995C17.7896 1.49995 22.5 6.21035 22.5 12C22.5 17.7896 17.7896 22.5236 12 22.5236Z" fill="#EA4335"/>
<path d="M13.7337 12.4997L17.4962 8.74592C17.661 8.58116 17.7535 8.35769 17.7535 8.12467C17.7535 7.89166 17.661 7.66819 17.4962 7.50342C17.3314 7.33866 17.108 7.24609 16.8749 7.24609C16.6419 7.24609 16.4185 7.33866 16.2537 7.50342L12.4999 11.2659L8.7462 7.50342C8.58143 7.33866 8.35796 7.24609 8.12495 7.24609C7.89193 7.24609 7.66846 7.33866 7.5037 7.50342C7.33893 7.66819 7.24637 7.89166 7.24637 8.12467C7.24637 8.35769 7.33893 8.58116 7.5037 8.74592L11.2662 12.4997L7.5037 16.2534C7.42168 16.3348 7.35659 16.4315 7.31217 16.5382C7.26774 16.6448 7.24487 16.7592 7.24487 16.8747C7.24487 16.9902 7.26774 17.1046 7.31217 17.2112C7.35659 17.3178 7.42168 17.4146 7.5037 17.4959C7.58504 17.5779 7.68181 17.643 7.78844 17.6875C7.89507 17.7319 8.00944 17.7548 8.12495 17.7548C8.24046 17.7548 8.35482 17.7319 8.46145 17.6875C8.56808 17.643 8.66485 17.5779 8.7462 17.4959L12.4999 13.7334L16.2537 17.4959C16.335 17.5779 16.4318 17.643 16.5384 17.6875C16.6451 17.7319 16.7594 17.7548 16.8749 17.7548C16.9905 17.7548 17.1048 17.7319 17.2114 17.6875C17.3181 17.643 17.4149 17.5779 17.4962 17.4959C17.5782 17.4146 17.6433 17.3178 17.6877 17.2112C17.7321 17.1046 17.755 16.9902 17.755 16.8747C17.755 16.7592 17.7321 16.6448 17.6877 16.5382C17.6433 16.4315 17.5782 16.3348 17.4962 16.2534L13.7337 12.4997Z" fill="#EA4335"/>
</g>
<defs>
<clipPath id="clip0_367_555">
<rect width="24" height="24" fill="white"/>
</clipPath>
</defs>
</svg>
