<svg width="25" height="25" viewBox="0 0 25 25" fill="none" xmlns="http://www.w3.org/2000/svg">
<path d="M11.3991 3.83164C11.5867 3.62214 11.8164 3.45455 12.0731 3.33981C12.3299 3.22508 12.6079 3.16577 12.8891 3.16577C13.1703 3.16577 13.4484 3.22508 13.7051 3.33981C13.9619 3.45455 14.1915 3.62214 14.3791 3.83164L15.0791 4.61364C15.2792 4.83714 15.527 5.01277 15.8041 5.12754C16.0812 5.2423 16.3806 5.29326 16.6801 5.27664L17.7301 5.21864C18.011 5.20316 18.2919 5.24709 18.5546 5.34757C18.8173 5.44804 19.0559 5.6028 19.2548 5.80173C19.4536 6.00067 19.6082 6.23931 19.7086 6.50207C19.8089 6.76483 19.8527 7.0458 19.8371 7.32664L19.7791 8.37564C19.7627 8.67497 19.8137 8.97418 19.9285 9.25113C20.0432 9.52808 20.2188 9.77569 20.4421 9.97564L21.2241 10.6756C21.4338 10.8632 21.6015 11.093 21.7164 11.3498C21.8312 11.6066 21.8906 11.8848 21.8906 12.1661C21.8906 12.4475 21.8312 12.7257 21.7164 12.9825C21.6015 13.2393 21.4338 13.469 21.2241 13.6566L20.4421 14.3566C20.2186 14.5567 20.043 14.8045 19.9282 15.0816C19.8135 15.3587 19.7625 15.6581 19.7791 15.9576L19.8371 17.0076C19.8526 17.2885 19.8087 17.5694 19.7082 17.8322C19.6077 18.0949 19.453 18.3334 19.254 18.5323C19.0551 18.7311 18.8165 18.8858 18.5537 18.9861C18.2909 19.0865 18.01 19.1303 17.7291 19.1146L16.6801 19.0566C16.3808 19.0402 16.0816 19.0912 15.8046 19.206C15.5277 19.3207 15.2801 19.4963 15.0801 19.7196L14.3801 20.5016C14.1925 20.7113 13.9628 20.879 13.706 20.9939C13.4491 21.1087 13.171 21.1681 12.8896 21.1681C12.6083 21.1681 12.3301 21.1087 12.0733 20.9939C11.8164 20.879 11.5867 20.7113 11.3991 20.5016L10.6991 19.7196C10.4991 19.4961 10.2513 19.3205 9.97416 19.2057C9.69702 19.091 9.39762 19.04 9.09812 19.0566L8.04813 19.1146C7.76728 19.1301 7.48633 19.0862 7.22361 18.9857C6.9609 18.8852 6.72233 18.7305 6.52349 18.5316C6.32465 18.3326 6.17001 18.094 6.06966 17.8312C5.96931 17.5685 5.92551 17.2875 5.94113 17.0066L5.99913 15.9576C6.01559 15.6583 5.96456 15.3591 5.8498 15.0822C5.73504 14.8052 5.55949 14.5576 5.33613 14.3576L4.55413 13.6576C4.34446 13.47 4.17672 13.2403 4.06189 12.9835C3.94705 12.7267 3.8877 12.4485 3.8877 12.1671C3.8877 11.8858 3.94705 11.6076 4.06189 11.3508C4.17672 11.094 4.34446 10.8642 4.55413 10.6766L5.33613 9.97664C5.55962 9.77658 5.73525 9.52881 5.85002 9.25168C5.96479 8.97454 6.01575 8.67514 5.99913 8.37564L5.94113 7.32564C5.92579 7.04488 5.96983 6.76404 6.07037 6.50144C6.17091 6.23885 6.32569 6.00041 6.52461 5.80168C6.72353 5.60295 6.96212 5.44839 7.2248 5.3481C7.48749 5.24781 7.76838 5.20404 8.04912 5.21964L9.09812 5.27764C9.39746 5.29411 9.69666 5.24308 9.97361 5.12832C10.2506 5.01356 10.4982 4.838 10.6981 4.61464L11.3981 3.83264L11.3991 3.83164Z" stroke="#FF8228" stroke-width="1.5"/>
<path d="M10.3887 9.66675H10.3987V9.67675H10.3887V9.66675ZM15.3887 14.6667H15.3987V14.6767H15.3887V14.6667Z" stroke="#FF8228" stroke-width="2.25" stroke-linejoin="round"/>
<path d="M15.8887 9.16675L9.88867 15.1667" stroke="#FF8228" stroke-width="1.5" stroke-linecap="round" stroke-linejoin="round"/>
</svg>
