<svg width="24" height="24" viewBox="0 0 24 24" fill="none" xmlns="http://www.w3.org/2000/svg">
<path d="M3 5.55029V4.80029C2.80109 4.80029 2.61032 4.87931 2.46967 5.01996C2.32902 5.16062 2.25 5.35138 2.25 5.55029H3ZM21 5.55029H21.75C21.75 5.35138 21.671 5.16062 21.5303 5.01996C21.3897 4.87931 21.1989 4.80029 21 4.80029V5.55029ZM3 6.30029H21V4.80029H3V6.30029ZM20.25 5.55029V17.5503H21.75V5.55029H20.25ZM19 18.8003H5V20.3003H19V18.8003ZM3.75 17.5503V5.55029H2.25V17.5503H3.75ZM5 18.8003C4.31 18.8003 3.75 18.2403 3.75 17.5503H2.25C2.25 18.2796 2.53973 18.9791 3.05546 19.4948C3.57118 20.0106 4.27065 20.3003 5 20.3003V18.8003ZM20.25 17.5503C20.25 18.2403 19.69 18.8003 19 18.8003V20.3003C19.7293 20.3003 20.4288 20.0106 20.9445 19.4948C21.4603 18.9791 21.75 18.2796 21.75 17.5503H20.25Z" fill="#A8ADAF"/>
<path d="M3 5.55029L12 14.5503L21 5.55029" stroke="#A8ADAF" stroke-width="1.5" stroke-linecap="round" stroke-linejoin="round"/>
</svg>
