<svg width="25" height="26" viewBox="0 0 25 26" fill="none" xmlns="http://www.w3.org/2000/svg">
<path d="M11.1771 5.49559C11.6163 5.44261 12.058 5.41621 12.5 5.41651C17.3584 5.41651 21.25 8.56142 22.9167 12.9998C22.5133 14.0795 21.9682 15.0959 21.2969 16.0202M6.79171 7.06209C4.66671 8.41084 3.02087 10.5006 2.08337 12.9998C3.75004 17.4383 7.64171 20.5832 12.5 20.5832C14.5127 20.5942 16.4888 20.0242 18.2084 18.9365M10.2917 10.7032C10.0015 11.005 9.77129 11.3633 9.61424 11.7576C9.45718 12.152 9.37634 12.5746 9.37634 13.0015C9.37634 13.4283 9.45718 13.8509 9.61424 14.2453C9.77129 14.6396 10.0015 14.9979 10.2917 15.2998C10.5819 15.6016 10.9264 15.841 11.3056 16.0043C11.6848 16.1677 12.0912 16.2517 12.5016 16.2517C12.912 16.2517 13.3184 16.1677 13.6976 16.0043C14.0768 15.841 14.4213 15.6016 14.7115 15.2998" stroke="#A8ADAF" stroke-width="2" stroke-linecap="round" stroke-linejoin="round"/>
<path d="M4.16675 4.33325L20.8334 21.6666" stroke="#A8ADAF" stroke-width="2" stroke-linecap="round"/>
</svg>
