<svg width="19" height="17" viewBox="0 0 19 17" fill="none" xmlns="http://www.w3.org/2000/svg">
<path d="M17.7667 3.09571H6.24026M4.14455 3.09571H1.00098M17.7667 13.5743H6.24026M4.14455 13.5743H1.00098M12.5274 8.335H1.00098M17.7667 8.335H14.6231M5.19241 1C5.47031 1 5.73684 1.1104 5.93335 1.30691C6.12986 1.50342 6.24026 1.76995 6.24026 2.04786V4.14357C6.24026 4.42148 6.12986 4.68801 5.93335 4.88452C5.73684 5.08103 5.47031 5.19143 5.19241 5.19143C4.9145 5.19143 4.64797 5.08103 4.45146 4.88452C4.25495 4.68801 4.14455 4.42148 4.14455 4.14357V2.04786C4.14455 1.76995 4.25495 1.50342 4.45146 1.30691C4.64797 1.1104 4.9145 1 5.19241 1ZM5.19241 11.4786C5.47031 11.4786 5.73684 11.589 5.93335 11.7855C6.12986 11.982 6.24026 12.2485 6.24026 12.5264V14.6221C6.24026 14.9001 6.12986 15.1666 5.93335 15.3631C5.73684 15.5596 5.47031 15.67 5.19241 15.67C4.9145 15.67 4.64797 15.5596 4.45146 15.3631C4.25495 15.1666 4.14455 14.9001 4.14455 14.6221V12.5264C4.14455 12.2485 4.25495 11.982 4.45146 11.7855C4.64797 11.589 4.9145 11.4786 5.19241 11.4786ZM13.5753 6.23929C13.8532 6.23929 14.1197 6.34968 14.3162 6.5462C14.5127 6.74271 14.6231 7.00923 14.6231 7.28714V9.38286C14.6231 9.66077 14.5127 9.92729 14.3162 10.1238C14.1197 10.3203 13.8532 10.4307 13.5753 10.4307C13.2974 10.4307 13.0308 10.3203 12.8343 10.1238C12.6378 9.92729 12.5274 9.66077 12.5274 9.38286V7.28714C12.5274 7.00923 12.6378 6.74271 12.8343 6.5462C13.0308 6.34968 13.2974 6.23929 13.5753 6.23929Z" stroke="#33357F" stroke-width="1.14286" stroke-linecap="round" stroke-linejoin="round"/>
</svg>
