<svg width="34" height="35" viewBox="0 0 34 35" fill="none" xmlns="http://www.w3.org/2000/svg">
<path d="M14.4075 7.58335C14.6191 7.58263 14.8282 7.62934 15.0195 7.72005C15.2107 7.81075 15.3791 7.94315 15.5125 8.10752L22.355 16.6075C22.5633 16.861 22.6772 17.179 22.6772 17.5071C22.6772 17.8352 22.5633 18.1532 22.355 18.4067L15.2716 26.9067C15.0312 27.196 14.6856 27.3779 14.311 27.4125C13.9364 27.447 13.5634 27.3313 13.2741 27.0908C12.9848 26.8504 12.8029 26.5048 12.7684 26.1302C12.7338 25.7556 12.8495 25.3827 13.09 25.0933L19.4225 17.5L13.3025 9.90668C13.1292 9.69874 13.0192 9.44552 12.9854 9.17699C12.9515 8.90847 12.9953 8.63586 13.1116 8.39145C13.2278 8.14704 13.4117 7.94104 13.6413 7.79783C13.871 7.65461 14.1368 7.58019 14.4075 7.58335Z" fill="#263238"/>
</svg>
