<svg width="25" height="24" viewBox="0 0 25 24" fill="none" xmlns="http://www.w3.org/2000/svg">
<path d="M17 2.25V3.75H19.6722L17.141 6.3045C16.2362 5.62133 15.1337 5.25119 14 5.25C12.5975 5.25 11.288 5.805 10.2965 6.79725C9.80636 7.28144 9.41726 7.8581 9.15172 8.4938C8.88618 9.1295 8.74948 9.8116 8.74955 10.5005C8.74962 11.1895 8.88646 11.8715 9.15213 12.5072C9.4178 13.1428 9.80701 13.7194 10.2972 14.2035C10.9497 14.856 11.7267 15.3248 12.5937 15.5625C12.6792 15.4973 12.7752 15.429 12.8517 15.3525C13.1661 15.0328 13.392 14.6368 13.5072 14.2035C12.6907 14.1027 11.9315 13.7312 11.351 13.1483C10.643 12.441 10.25 11.502 10.25 10.5C10.25 9.498 10.6437 8.5605 11.3525 7.8525C12.059 7.14225 12.998 6.75 14 6.75C15.002 6.75 15.9402 7.14375 16.6475 7.8525C16.9974 8.19879 17.2751 8.61115 17.4643 9.06564C17.6536 9.52013 17.7507 10.0077 17.75 10.5C17.75 11.1488 17.5662 11.7525 17.258 12.3045C17.33 12.6915 17.375 13.098 17.375 13.5C17.375 13.8735 17.3435 14.2425 17.2812 14.6025C17.4312 14.4803 17.5647 14.3415 17.7035 14.2035C18.695 13.2105 19.25 11.9025 19.25 10.5C19.25 9.3525 18.872 8.262 18.1955 7.359L20.75 4.8285V7.5H22.25V2.25H17ZM12.4062 8.4375C12.3207 8.50275 12.2247 8.571 12.1482 8.6475C11.8242 8.973 11.6127 9.3675 11.4927 9.79725C12.3102 9.90225 13.0565 10.2593 13.649 10.8518C14.3577 11.559 14.7515 12.498 14.7515 13.4993C14.7515 14.5005 14.3577 15.4388 13.649 16.1468C12.941 16.8578 12.002 17.25 11 17.25C9.99796 17.25 9.05971 16.8563 8.35246 16.1475C8.00225 15.8014 7.72441 15.3891 7.53513 14.9346C7.34584 14.48 7.24891 13.9924 7.24996 13.5C7.24996 12.8513 7.43371 12.2475 7.74196 11.6955C7.66666 11.3014 7.62749 10.9012 7.62496 10.5C7.62496 10.1265 7.65646 9.7575 7.71871 9.3975C7.56871 9.51975 7.43596 9.6585 7.29646 9.79725C6.30646 10.788 5.74996 12.0975 5.74996 13.5C5.74996 14.6475 6.12796 15.738 6.80446 16.641L5.53996 17.9063L4.03996 16.4063L2.95996 17.4608L4.45996 18.9608L2.95996 20.4608L4.03996 21.5408L5.53996 20.0408L7.03996 21.5408L8.09371 20.4608L6.59371 18.9608L7.85971 17.6963C8.76358 18.3805 9.86632 18.7505 11 18.75C12.4025 18.75 13.712 18.195 14.7035 17.2028C15.695 16.212 16.25 14.9025 16.25 13.5C16.25 12.0975 15.695 10.7895 14.7027 9.7965C14.0502 9.144 13.2732 8.67525 12.4062 8.4375Z" fill="#A8ADAF"/>
</svg>
