<svg width="16" height="16" viewBox="0 0 16 16" fill="none" xmlns="http://www.w3.org/2000/svg">
<mask id="mask0_20_854" style="mask-type:luminance" maskUnits="userSpaceOnUse" x="0" y="0" width="16" height="16">
<path fill-rule="evenodd" clip-rule="evenodd" d="M15.814 6.54545H8.18605V9.63636H12.5767C12.1674 11.6 10.4558 12.7273 8.18605 12.7273C5.50698 12.7273 3.34884 10.6182 3.34884 8C3.34884 5.38182 5.50698 3.27273 8.18605 3.27273C9.33953 3.27273 10.3814 3.67273 11.2 4.32727L13.5814 2C12.1302 0.763636 10.2698 0 8.18605 0C3.64651 0 0 3.56364 0 8C0 12.4364 3.64651 16 8.18605 16C12.2791 16 16 13.0909 16 8C16 7.52727 15.9256 7.01818 15.814 6.54545Z" fill="white"/>
</mask>
<g mask="url(#mask0_20_854)">
<path d="M-0.744186 12.7273V3.27271L5.5814 7.99998L-0.744186 12.7273Z" fill="#FBBC05"/>
</g>
<mask id="mask1_20_854" style="mask-type:luminance" maskUnits="userSpaceOnUse" x="0" y="0" width="16" height="16">
<path fill-rule="evenodd" clip-rule="evenodd" d="M15.814 6.54545H8.18605V9.63636H12.5767C12.1674 11.6 10.4558 12.7273 8.18605 12.7273C5.50698 12.7273 3.34884 10.6182 3.34884 8C3.34884 5.38182 5.50698 3.27273 8.18605 3.27273C9.33953 3.27273 10.3814 3.67273 11.2 4.32727L13.5814 2C12.1302 0.763636 10.2698 0 8.18605 0C3.64651 0 0 3.56364 0 8C0 12.4364 3.64651 16 8.18605 16C12.2791 16 16 13.0909 16 8C16 7.52727 15.9256 7.01818 15.814 6.54545Z" fill="white"/>
</mask>
<g mask="url(#mask1_20_854)">
<path d="M-0.744186 3.27271L5.5814 7.99998L8.18605 5.7818L17.1163 4.36361V-0.727295H-0.744186V3.27271Z" fill="#EA4335"/>
</g>
<mask id="mask2_20_854" style="mask-type:luminance" maskUnits="userSpaceOnUse" x="0" y="0" width="16" height="16">
<path fill-rule="evenodd" clip-rule="evenodd" d="M15.814 6.54545H8.18605V9.63636H12.5767C12.1674 11.6 10.4558 12.7273 8.18605 12.7273C5.50698 12.7273 3.34884 10.6182 3.34884 8C3.34884 5.38182 5.50698 3.27273 8.18605 3.27273C9.33953 3.27273 10.3814 3.67273 11.2 4.32727L13.5814 2C12.1302 0.763636 10.2698 0 8.18605 0C3.64651 0 0 3.56364 0 8C0 12.4364 3.64651 16 8.18605 16C12.2791 16 16 13.0909 16 8C16 7.52727 15.9256 7.01818 15.814 6.54545Z" fill="white"/>
</mask>
<g mask="url(#mask2_20_854)">
<path d="M-0.744186 12.7273L10.4186 4.36361L13.3581 4.72725L17.1163 -0.727295V16.7273H-0.744186V12.7273Z" fill="#34A853"/>
</g>
<mask id="mask3_20_854" style="mask-type:luminance" maskUnits="userSpaceOnUse" x="0" y="0" width="16" height="16">
<path fill-rule="evenodd" clip-rule="evenodd" d="M15.814 6.54545H8.18605V9.63636H12.5767C12.1674 11.6 10.4558 12.7273 8.18605 12.7273C5.50698 12.7273 3.34884 10.6182 3.34884 8C3.34884 5.38182 5.50698 3.27273 8.18605 3.27273C9.33953 3.27273 10.3814 3.67273 11.2 4.32727L13.5814 2C12.1302 0.763636 10.2698 0 8.18605 0C3.64651 0 0 3.56364 0 8C0 12.4364 3.64651 16 8.18605 16C12.2791 16 16 13.0909 16 8C16 7.52727 15.9256 7.01818 15.814 6.54545Z" fill="white"/>
</mask>
<g mask="url(#mask3_20_854)">
<path d="M17.1163 16.7273L5.5814 7.99998L4.09302 6.90907L17.1163 3.27271V16.7273Z" fill="#4285F4"/>
</g>
</svg>
