<svg width="14" height="14" viewBox="0 0 14 14" fill="none" xmlns="http://www.w3.org/2000/svg">
<g clip-path="url(#clip0_609_680)">
<path d="M2.1875 5.79688V12.25C2.1875 12.366 2.23359 12.4773 2.31564 12.5594C2.39769 12.6414 2.50897 12.6875 2.625 12.6875H5.25V8.96875C5.25 8.7947 5.31914 8.62778 5.44221 8.50471C5.56528 8.38164 5.7322 8.3125 5.90625 8.3125H8.09375C8.2678 8.3125 8.43472 8.38164 8.55779 8.50471C8.68086 8.62778 8.75 8.7947 8.75 8.96875V12.6875H11.375C11.491 12.6875 11.6023 12.6414 11.6844 12.5594C11.7664 12.4773 11.8125 12.366 11.8125 12.25V5.79688" stroke="#263238" stroke-linecap="round" stroke-linejoin="round"/>
<path d="M13.125 6.99952L7.29777 1.4214C7.16106 1.27702 6.84141 1.27538 6.70223 1.4214L0.875 6.99952M10.9375 4.89405V1.74952H9.625V3.63624" stroke="#263238" stroke-linecap="round" stroke-linejoin="round"/>
</g>
<defs>
<clipPath id="clip0_609_680">
<rect width="14" height="14" fill="white"/>
</clipPath>
</defs>
</svg>
