<svg width="20" height="20" viewBox="0 0 20 20" fill="none" xmlns="http://www.w3.org/2000/svg">
<path d="M10 0.666711L10.4333 0.160044C10.3126 0.0567576 10.1589 0 10 0C9.8411 0 9.68742 0.0567576 9.56667 0.160044L10 0.666711ZM0.666667 8.66671L0.233333 8.16004L0 8.36004V8.66671H0.666667ZM7.33333 19.3334V20C7.51014 20 7.67971 19.9298 7.80474 19.8048C7.92976 19.6798 8 19.5102 8 19.3334H7.33333ZM12.6667 19.3334H12C12 19.5102 12.0702 19.6798 12.1953 19.8048C12.3203 19.9298 12.4899 20 12.6667 20V19.3334ZM19.3333 8.66671H20V8.36004L19.7667 8.16004L19.3333 8.66671ZM2 20H7.33333V18.6667H2V20ZM19.7667 8.16004L10.4333 0.160044L9.56667 1.17338L18.9 9.17338L19.7667 8.16004ZM9.56667 0.160044L0.233333 8.16004L1.1 9.17338L10.4333 1.17338L9.56667 0.160044ZM8 19.3334V15.3334H6.66667V19.3334H8ZM12 15.3334V19.3334H13.3333V15.3334H12ZM12.6667 20H18V18.6667H12.6667V20ZM20 18V8.66671H18.6667V18H20ZM0 8.66671V18H1.33333V8.66671H0ZM10 13.3334C10.5304 13.3334 11.0391 13.5441 11.4142 13.9192C11.7893 14.2942 12 14.8029 12 15.3334H13.3333C13.3333 14.4493 12.9821 13.6015 12.357 12.9764C11.7319 12.3512 10.8841 12 10 12V13.3334ZM10 12C9.11594 12 8.2681 12.3512 7.64298 12.9764C7.01786 13.6015 6.66667 14.4493 6.66667 15.3334H8C8 14.8029 8.21071 14.2942 8.58579 13.9192C8.96086 13.5441 9.46957 13.3334 10 13.3334V12ZM18 20C18.5304 20 19.0391 19.7893 19.4142 19.4143C19.7893 19.0392 20 18.5305 20 18H18.6667C18.6667 18.1769 18.5964 18.3464 18.4714 18.4714C18.3464 18.5965 18.1768 18.6667 18 18.6667V20ZM2 18.6667C1.82319 18.6667 1.65362 18.5965 1.5286 18.4714C1.40357 18.3464 1.33333 18.1769 1.33333 18H0C0 18.5305 0.210714 19.0392 0.585786 19.4143C0.960859 19.7893 1.46957 20 2 20V18.6667Z" fill="white"/>
</svg>
