<svg width="25" height="24" viewBox="0 0 25 24" fill="none" xmlns="http://www.w3.org/2000/svg">
<path d="M6.78713 0.000662819C6.87805 -0.0037059 6.96851 0.0135776 7.05114 0.0508499L7.08631 0.0696775C7.17802 0.118781 7.2547 0.191847 7.30816 0.281091C7.3616 0.370293 7.38985 0.472461 7.38991 0.576444V8.2813H9.00641C9.15891 8.2813 9.30516 8.34188 9.41299 8.44971C9.52083 8.55754 9.58141 8.7038 9.58141 8.8563C9.58141 9.0088 9.52083 9.15505 9.41299 9.26289C9.30516 9.37072 9.15891 9.4313 9.00641 9.4313H4.57841C4.42591 9.4313 4.27965 9.37072 4.17182 9.26289C4.06399 9.15505 4.00341 9.0088 4.00341 8.8563C4.00341 8.7038 4.06399 8.55754 4.17182 8.44971C4.27965 8.34188 4.42591 8.2813 4.57841 8.2813H6.23991V1.64776L4.88663 2.5513C4.76016 2.63278 4.60676 2.66147 4.45933 2.63114C4.31104 2.60063 4.18075 2.51287 4.09677 2.38689C4.01279 2.26091 3.98188 2.1069 4.01075 1.95827C4.03947 1.81047 4.125 1.67987 4.24892 1.59447L6.49599 0.096426C6.58259 0.0387538 6.68321 0.00565656 6.78713 0.000662819Z" fill="#A8ADAF"/>
<path d="M13.172 6.29045C13.2799 6.18261 13.4261 6.12203 13.5786 6.12203H19.5785C19.692 6.12221 19.803 6.15598 19.8973 6.2191C19.9918 6.28229 20.0654 6.37205 20.1089 6.47706C20.1524 6.58207 20.1637 6.6976 20.1416 6.80907C20.1195 6.92054 20.0648 7.02295 19.9845 7.10336L16.4585 10.633L17.4084 10.8644C17.8419 10.97 18.2362 11.112 18.5827 11.2951C19.5424 11.8009 20.1551 12.6363 20.1551 13.816C20.1551 14.6581 19.8604 15.354 19.3628 15.8778L19.3621 15.8786C18.8735 16.395 18.2157 16.7197 17.5206 16.8874C16.1506 17.2169 14.4936 16.9707 13.2807 16.1817C13.1687 16.0943 13.0928 15.9684 13.0679 15.8282C13.0422 15.6834 13.0728 15.5343 13.1534 15.4113C13.234 15.2884 13.3585 15.2008 13.5015 15.1667C13.6404 15.1335 13.7864 15.153 13.9115 15.2212C14.8453 15.8255 16.1718 16.0282 17.2513 15.7684C17.7877 15.6404 18.2272 15.4057 18.5272 15.0886C18.82 14.7798 19.0051 14.3673 19.0051 13.816C19.0051 13.5089 18.9427 13.2069 18.7649 12.9312C18.5905 12.661 18.3381 12.4665 18.046 12.3127C17.3707 11.9561 16.3553 11.7721 15.0806 11.772C14.9669 11.7719 14.8559 11.7382 14.7614 11.675C14.6669 11.6118 14.5933 11.522 14.5498 11.417C14.5064 11.312 14.495 11.1965 14.5171 11.085C14.5393 10.9735 14.594 10.8711 14.6743 10.7907L18.1929 7.27203H13.5786C13.4261 7.27203 13.2799 7.21145 13.172 7.10362C13.0642 6.99579 13.0036 6.84953 13.0036 6.69703C13.0036 6.54453 13.0642 6.39828 13.172 6.29045Z" fill="#A8ADAF"/>
<path d="M4.02884 15.8248C4.6824 14.4174 6.06048 13.8228 7.28808 14C8.54081 14.1816 9.625 15.1693 9.625 16.7887C9.625 18.618 8.25622 19.6062 7.17563 20.3589L7.1742 20.3599L7.05494 20.4434C6.64982 20.7271 6.26992 20.993 5.96968 21.2559L4.86898 22.2197H9.425C9.5775 22.2197 9.72375 22.2803 9.83159 22.3881C9.93942 22.4959 10 22.6422 10 22.7947C10 22.9472 9.93942 23.0935 9.83159 23.2013C9.72375 23.3091 9.5775 23.3697 9.425 23.3697H4.55C4.3975 23.3697 4.25124 23.3091 4.14341 23.2013C4.03558 23.0935 3.975 22.9472 3.975 22.7947C3.975 21.938 4.34168 21.2841 4.8324 20.7546C5.27494 20.2818 5.84729 19.8837 6.36177 19.5259L6.46954 19.4509L6.4704 19.4503C7.067 19.0327 7.56403 18.6581 7.9074 18.258C8.27311 17.8318 8.475 17.3654 8.475 16.7887C8.475 16.3271 8.34234 15.9286 8.07454 15.6295C7.81019 15.3342 7.46148 15.1885 7.12443 15.139L7.12228 15.1387C6.37044 15.0313 5.49822 15.389 5.071 16.3096L5.0665 16.3199C5.03571 16.3899 4.99124 16.4531 4.93571 16.5057C4.88018 16.5584 4.8147 16.5994 4.74311 16.6264C4.67152 16.6534 4.59526 16.6659 4.51879 16.6631C4.44233 16.6602 4.3672 16.6421 4.29781 16.6099C4.22841 16.5777 4.16615 16.5319 4.11468 16.4753C4.06321 16.4186 4.02355 16.3523 3.99803 16.2802C3.97252 16.2081 3.96166 16.1315 3.96609 16.0552C3.97052 15.9788 3.99026 15.9041 4.02395 15.8354L4.02884 15.8248Z" fill="#A8ADAF"/>
</svg>
