<svg width="24" height="24" viewBox="0 0 24 24" fill="none" xmlns="http://www.w3.org/2000/svg">
<path d="M17.44 9.33006H16.34V6.40006C16.34 5.24902 15.8828 4.14512 15.0688 3.33122C14.2549 2.51731 13.151 2.06006 12 2.06006C10.849 2.06006 9.74506 2.51731 8.93116 3.33122C8.11725 4.14512 7.66 5.24902 7.66 6.40006V9.33006H6.56C5.89696 9.33006 5.26107 9.59345 4.79223 10.0623C4.32339 10.5311 4.06 11.167 4.06 11.8301V19.4401C4.06185 20.1025 4.32583 20.7373 4.79427 21.2058C5.26271 21.6742 5.89753 21.9382 6.56 21.9401H17.44C18.1025 21.9382 18.7373 21.6742 19.2057 21.2058C19.6742 20.7373 19.9382 20.1025 19.94 19.4401V11.8301C19.94 11.167 19.6766 10.5311 19.2078 10.0623C18.7389 9.59345 18.103 9.33006 17.44 9.33006ZM8.66 6.40006C8.66 5.51424 9.01189 4.66469 9.63826 4.03832C10.2646 3.41195 11.1142 3.06006 12 3.06006C12.8858 3.06006 13.7354 3.41195 14.3617 4.03832C14.9881 4.66469 15.34 5.51424 15.34 6.40006V9.33006H8.66V6.40006ZM18.94 19.4401C18.9371 19.837 18.7782 20.2169 18.4975 20.4975C18.2168 20.7782 17.8369 20.9372 17.44 20.9401H6.56C6.16306 20.9372 5.7832 20.7782 5.50252 20.4975C5.22184 20.2169 5.06288 19.837 5.06 19.4401V11.8301C5.06 11.4322 5.21803 11.0507 5.49934 10.7694C5.78064 10.4881 6.16217 10.3301 6.56 10.3301H17.44C17.8378 10.3301 18.2194 10.4881 18.5007 10.7694C18.782 11.0507 18.94 11.4322 18.94 11.8301V19.4401Z" fill="#A8ADAF" stroke="#A8ADAF" stroke-width="0.8"/>
<path d="M13 14.9502C13.0006 15.125 12.9546 15.2969 12.8667 15.448C12.7788 15.5992 12.6522 15.7242 12.5 15.8102V17.3102C12.5 17.4428 12.4473 17.57 12.3536 17.6637C12.2598 17.7575 12.1326 17.8102 12 17.8102C11.8674 17.8102 11.7402 17.7575 11.6464 17.6637C11.5527 17.57 11.5 17.4428 11.5 17.3102V15.8102C11.3478 15.7242 11.2212 15.5992 11.1333 15.448C11.0454 15.2969 10.9994 15.125 11 14.9502C11 14.685 11.1054 14.4306 11.2929 14.2431C11.4804 14.0556 11.7348 13.9502 12 13.9502C12.2652 13.9502 12.5196 14.0556 12.7071 14.2431C12.8946 14.4306 13 14.685 13 14.9502Z" fill="#A8ADAF" stroke="#A8ADAF" stroke-width="0.8"/>
</svg>
