<svg width="14" height="14" viewBox="0 0 14 14" fill="none" xmlns="http://www.w3.org/2000/svg">
<path d="M0.875 4.15625C0.875 3.63411 1.08242 3.13335 1.45163 2.76413C1.82085 2.39492 2.32161 2.1875 2.84375 2.1875H11.1562C11.6784 2.1875 12.1792 2.39492 12.5484 2.76413C12.9176 3.13335 13.125 3.63411 13.125 4.15625V9.84375C13.125 10.3659 12.9176 10.8667 12.5484 11.2359C12.1792 11.6051 11.6784 11.8125 11.1562 11.8125H2.84375C2.32161 11.8125 1.82085 11.6051 1.45163 11.2359C1.08242 10.8667 0.875 10.3659 0.875 9.84375V4.15625ZM2.84375 3.0625C2.55367 3.0625 2.27547 3.17773 2.07035 3.38285C1.86523 3.58797 1.75 3.86617 1.75 4.15625V4.8125H12.25V4.15625C12.25 3.86617 12.1348 3.58797 11.9296 3.38285C11.7245 3.17773 11.4463 3.0625 11.1562 3.0625H2.84375ZM1.75 9.84375C1.75 10.1338 1.86523 10.412 2.07035 10.6171C2.27547 10.8223 2.55367 10.9375 2.84375 10.9375H11.1562C11.4463 10.9375 11.7245 10.8223 11.9296 10.6171C12.1348 10.412 12.25 10.1338 12.25 9.84375V5.6875H1.75V9.84375ZM9.1875 8.3125H10.5C10.616 8.3125 10.7273 8.35859 10.8094 8.44064C10.8914 8.52269 10.9375 8.63397 10.9375 8.75C10.9375 8.86603 10.8914 8.97731 10.8094 9.05936C10.7273 9.14141 10.616 9.1875 10.5 9.1875H9.1875C9.07147 9.1875 8.96019 9.14141 8.87814 9.05936C8.79609 8.97731 8.75 8.86603 8.75 8.75C8.75 8.63397 8.79609 8.52269 8.87814 8.44064C8.96019 8.35859 9.07147 8.3125 9.1875 8.3125Z" fill="#263238"/>
</svg>
