<svg width="25" height="24" viewBox="0 0 25 24" fill="none" xmlns="http://www.w3.org/2000/svg">
<path fill-rule="evenodd" clip-rule="evenodd" d="M12.5 1.40003C11.1012 1.39817 9.74885 1.90188 8.69212 2.81837C7.63539 3.73485 6.94547 5.00236 6.74948 6.38736C6.55349 7.77235 6.86463 9.18152 7.62558 10.3552C8.38652 11.5289 9.546 12.3881 10.8904 12.7744C8.97999 13.0064 7.34159 13.6816 6.10639 14.8992C4.53519 16.4464 3.73999 18.752 3.73999 21.76C3.73999 21.9616 3.82006 22.1549 3.96259 22.2974C4.10512 22.44 4.29843 22.52 4.49999 22.52C4.70155 22.52 4.89486 22.44 5.03739 22.2974C5.17992 22.1549 5.25999 21.9616 5.25999 21.76C5.25999 19.008 5.98479 17.152 7.17359 15.9808C8.36399 14.808 10.1432 14.2 12.5 14.2C14.8568 14.2 16.636 14.808 17.828 15.9808C19.0152 17.1536 19.74 19.008 19.74 21.76C19.74 21.9616 19.8201 22.1549 19.9626 22.2974C20.1051 22.44 20.2984 22.52 20.5 22.52C20.7016 22.52 20.8949 22.44 21.0374 22.2974C21.1799 22.1549 21.26 21.9616 21.26 21.76C21.26 18.752 20.4648 16.448 18.892 14.8992C17.66 13.6832 16.02 13.0064 14.1096 12.7744C15.4495 12.3838 16.6037 11.5233 17.3607 10.3507C18.1177 9.17813 18.4267 7.77202 18.2312 6.39009C18.0356 5.00817 17.3485 3.74302 16.2959 2.82652C15.2433 1.91003 13.8957 1.40359 12.5 1.40003ZM8.21999 7.20003C8.21999 6.0649 8.67092 4.97627 9.47357 4.17361C10.2762 3.37096 11.3649 2.92003 12.5 2.92003C13.6351 2.92003 14.7238 3.37096 15.5264 4.17361C16.3291 4.97627 16.78 6.0649 16.78 7.20003C16.78 8.33515 16.3291 9.42379 15.5264 10.2264C14.7238 11.0291 13.6351 11.48 12.5 11.48C11.3649 11.48 10.2762 11.0291 9.47357 10.2264C8.67092 9.42379 8.21999 8.33515 8.21999 7.20003Z" fill="#A8ADAF"/>
</svg>
