<svg width="65" height="63" viewBox="0 0 65 63" fill="none" xmlns="http://www.w3.org/2000/svg">
<path d="M47.2188 10.5C48.3391 10.5 49.4485 10.7207 50.4835 11.1494C51.5186 11.5781 52.4591 12.2065 53.2513 12.9987C54.0435 13.7909 54.6719 14.7314 55.1006 15.7665C55.5293 16.8015 55.75 17.9109 55.75 19.0312V49.2188C55.75 50.3391 55.5293 51.4485 55.1006 52.4835C54.6719 53.5186 54.0435 54.4591 53.2513 55.2513C52.4591 56.0435 51.5186 56.6719 50.4835 57.1006C49.4485 57.5293 48.3391 57.75 47.2188 57.75H17.0312C15.9109 57.75 14.8015 57.5293 13.7665 57.1006C12.7314 56.6719 11.7909 56.0435 10.9987 55.2513C10.2065 54.4591 9.57814 53.5186 9.1494 52.4835C8.72067 51.4485 8.5 50.3391 8.5 49.2188V32.8177C9.74425 33.3375 11.0646 33.7102 12.4375 33.9255V49.2188C12.4375 49.7648 12.532 50.2897 12.7079 50.778L27.9932 35.8129C29.0411 34.7871 30.433 34.1878 31.8983 34.1315C33.3635 34.0752 34.7973 34.566 35.9207 35.5084L36.2568 35.8129L51.5395 50.7806C51.7154 50.2924 51.8125 49.7674 51.8125 49.2188V19.0312C51.8125 17.8129 51.3285 16.6445 50.467 15.783C49.6055 14.9215 48.4371 14.4375 47.2188 14.4375H31.9255C31.7166 13.0851 31.3446 11.763 30.8177 10.5H47.2188ZM30.9674 38.4405L30.7469 38.6242L15.5035 53.5526C15.9813 53.7206 16.4958 53.8125 17.0312 53.8125H47.2188C47.7516 53.8125 48.2661 53.7206 48.7412 53.5526L33.5031 38.6269C33.1707 38.3011 32.7336 38.1036 32.2694 38.0694C31.8052 38.0353 31.3439 38.1668 30.9674 38.4405ZM40.6615 19.6875C42.2293 19.6875 43.7329 20.3103 44.8416 21.4189C45.9502 22.5276 46.573 24.0312 46.573 25.599C46.573 27.1668 45.9502 28.6704 44.8416 29.7791C43.7329 30.8877 42.2293 31.5105 40.6615 31.5105C39.0937 31.5105 37.5901 30.8877 36.4814 29.7791C35.3728 28.6704 34.75 27.1668 34.75 25.599C34.75 24.0312 35.3728 22.5276 36.4814 21.4189C37.5901 20.3103 39.0937 19.6875 40.6615 19.6875ZM15.0625 2.625C16.9585 2.625 18.8359 2.99844 20.5875 3.72399C22.3391 4.44954 23.9307 5.513 25.2714 6.85365C26.612 8.19429 27.6755 9.78587 28.401 11.5375C29.1266 13.2891 29.5 15.1665 29.5 17.0625C29.5 18.9585 29.1266 20.8359 28.401 22.5875C27.6755 24.3391 26.612 25.9307 25.2714 27.2714C23.9307 28.612 22.3391 29.6755 20.5875 30.401C18.8359 31.1266 16.9585 31.5 15.0625 31.5C11.2334 31.5 7.5612 29.9789 4.85365 27.2714C2.14609 24.5638 0.625 20.8916 0.625 17.0625C0.625 13.2334 2.14609 9.5612 4.85365 6.85365C7.5612 4.14609 11.2334 2.625 15.0625 2.625ZM40.6615 23.625C40.4023 23.625 40.1456 23.6761 39.9061 23.7753C39.6666 23.8745 39.449 24.0199 39.2657 24.2032C39.0824 24.3865 38.937 24.6041 38.8378 24.8436C38.7386 25.0831 38.6875 25.3398 38.6875 25.599C38.6875 25.8582 38.7386 26.1149 38.8378 26.3544C38.937 26.5939 39.0824 26.8115 39.2657 26.9948C39.449 27.1781 39.6666 27.3235 39.9061 27.4227C40.1456 27.5219 40.4023 27.573 40.6615 27.573C41.185 27.573 41.6871 27.365 42.0573 26.9948C42.4275 26.6246 42.6355 26.1225 42.6355 25.599C42.6355 25.0755 42.4275 24.5734 42.0573 24.2032C41.6871 23.833 41.185 23.625 40.6615 23.625ZM15.0625 7.875L14.8263 7.89337C14.564 7.94129 14.3226 8.06792 14.1341 8.25643C13.9455 8.44493 13.8189 8.68638 13.771 8.94862L13.75 9.1875V15.75H7.18225L6.946 15.771C6.68375 15.8189 6.44231 15.9455 6.2538 16.1341C6.0653 16.3226 5.93866 16.564 5.89075 16.8263L5.86975 17.0625L5.89075 17.2987C5.93866 17.561 6.0653 17.8024 6.2538 17.9909C6.44231 18.1795 6.68375 18.3061 6.946 18.354L7.18225 18.375H13.75V24.9454L13.771 25.1816C13.8189 25.4439 13.9455 25.6853 14.1341 25.8738C14.3226 26.0623 14.564 26.189 14.8263 26.2369L15.0625 26.2605L15.2987 26.2369C15.561 26.189 15.8024 26.0623 15.9909 25.8738C16.1795 25.6853 16.3061 25.4439 16.354 25.1816L16.375 24.9454V18.375H22.9506L23.1869 18.354C23.4491 18.3061 23.6906 18.1795 23.8791 17.9909C24.0676 17.8024 24.1942 17.561 24.2421 17.2987L24.2631 17.0625L24.2421 16.8263C24.194 16.5636 24.067 16.3219 23.878 16.1334C23.689 15.9448 23.447 15.8184 23.1842 15.771L22.948 15.75H16.375V9.1875L16.354 8.95125C16.3066 8.68852 16.1802 8.4465 15.9916 8.25749C15.8031 8.06848 15.5614 7.94146 15.2987 7.89337L15.0625 7.875Z" fill="#EBECF2"/>
</svg>
