<svg width="16" height="16" viewBox="0 0 16 16" fill="none" xmlns="http://www.w3.org/2000/svg">
<path fill-rule="evenodd" clip-rule="evenodd" d="M7.74919 0.0495704C7.60791 0.110771 7.47751 0.235579 7.40249 0.381392C7.35442 0.47485 7.34285 0.564213 7.34285 0.841836C7.34285 1.17425 7.34039 1.18679 7.27253 1.19979C7.23383 1.2072 7.05911 1.23648 6.88426 1.26483C5.47973 1.49276 4.20005 2.1519 3.1737 3.17606C2.14929 4.19828 1.44095 5.58786 1.24766 6.95438C1.18583 7.39138 1.23419 7.34509 0.839604 7.34509C0.561981 7.34509 0.472618 7.35665 0.37916 7.40472C-0.126387 7.66478 -0.126387 8.33818 0.37916 8.59823C0.472618 8.64631 0.561981 8.65787 0.839604 8.65787C1.17202 8.65787 1.18455 8.66034 1.19756 8.7282C1.20496 8.76689 1.23425 8.94162 1.2626 9.11647C1.67391 11.6511 3.53469 13.7821 5.98987 14.5302C6.32288 14.6317 6.79005 14.7353 7.06154 14.768C7.36283 14.8043 7.34285 14.7763 7.34285 15.1626C7.34285 15.54 7.38089 15.6604 7.55096 15.8218C7.88338 16.1373 8.42846 16.0177 8.6071 15.5901C8.64054 15.51 8.65564 15.3716 8.65564 15.1452C8.65564 14.8296 8.65842 14.8161 8.72597 14.8021C8.76466 14.7942 8.94398 14.7644 9.12449 14.7359C11.9648 14.2887 14.2874 11.9608 14.7361 9.1115C14.7632 8.93937 14.7919 8.76689 14.7999 8.7282C14.8138 8.66059 14.8274 8.65784 15.1498 8.65718C15.4094 8.65665 15.5135 8.6434 15.6103 8.59861C16.1232 8.36115 16.1284 7.66662 15.6193 7.40472C15.5259 7.35665 15.4365 7.34509 15.1589 7.34509C14.8268 7.34509 14.8139 7.34255 14.7999 7.27476C14.7919 7.23606 14.7632 7.06359 14.7361 6.89146C14.4776 5.24998 13.5778 3.71799 12.2502 2.65895C11.3508 1.94154 10.3067 1.46963 9.20263 1.28156C8.97915 1.24348 8.76466 1.20648 8.72597 1.19932C8.65827 1.18679 8.65561 1.17378 8.65495 0.8509C8.65442 0.591344 8.64117 0.487196 8.59638 0.390457C8.44697 0.0676994 8.06351 -0.086584 7.74919 0.0495704ZM9.36476 2.67436C10.6497 2.99386 11.8718 3.87215 12.6022 5.00083C13.034 5.66804 13.3721 6.56629 13.4436 7.23569L13.4536 7.32946L13.1045 7.34509C12.7795 7.35965 12.7463 7.36715 12.6224 7.45448C12.423 7.59508 12.3365 7.77977 12.3501 8.03614C12.3629 8.27623 12.4425 8.42004 12.6381 8.55679C12.7487 8.63408 12.7934 8.64374 13.107 8.65787L13.4536 8.6735L13.4436 8.76727C13.3909 9.26084 13.1677 9.9565 12.8871 10.502C12.2324 11.7749 11.0904 12.7645 9.76375 13.2084C9.46475 13.3084 8.9863 13.4222 8.76504 13.4458L8.67127 13.4558L8.65564 13.1092C8.64151 12.7956 8.63185 12.7509 8.55455 12.6404C8.50758 12.5731 8.41718 12.4829 8.35367 12.4399C8.25521 12.3733 8.20276 12.3618 7.9964 12.3618C7.77814 12.3618 7.7416 12.3709 7.62145 12.4556C7.4084 12.6056 7.34285 12.7649 7.34285 13.1325V13.4402L7.24127 13.4397C7.18541 13.4394 7.00706 13.4112 6.84497 13.377C4.99397 12.9863 3.41419 11.5822 2.79872 9.78052C2.69497 9.47683 2.57942 8.99654 2.55494 8.76727L2.54494 8.6735L2.89152 8.65787C3.20508 8.64374 3.24978 8.63408 3.36037 8.55679C3.42763 8.50981 3.51781 8.41941 3.56079 8.3559C3.6273 8.25769 3.63893 8.20483 3.63893 8.0011C3.63893 7.79096 3.62849 7.74677 3.55347 7.63937C3.39475 7.41207 3.28388 7.36281 2.89114 7.34509L2.54494 7.32946L2.55494 7.23569C2.6269 6.56154 2.96356 5.66797 3.39697 5.00083C4.17242 3.80716 5.46429 2.91738 6.84497 2.62597C7.00706 2.59178 7.18416 2.56355 7.23852 2.5633L7.33732 2.5628L7.34792 2.90162C7.35758 3.21116 7.36586 3.25098 7.44394 3.36266C7.49092 3.42986 7.58131 3.52004 7.64483 3.56302C7.743 3.6295 7.79592 3.64116 7.99925 3.64116C8.20257 3.64116 8.25549 3.6295 8.35367 3.56302C8.41718 3.52004 8.50758 3.42986 8.55455 3.36263C8.63176 3.2522 8.64092 3.20991 8.64936 2.92504C8.65451 2.75159 8.66389 2.59393 8.67027 2.57468C8.68299 2.53611 8.98052 2.57881 9.36476 2.67436ZM7.5649 6.04937C7.21989 6.12423 6.85928 6.32602 6.592 6.5938C5.80999 7.37731 5.80355 8.62393 6.5776 9.3924C6.95983 9.77189 7.37849 9.96368 7.88697 9.99219C8.79923 10.0433 9.63591 9.46051 9.91463 8.57973C10.0128 8.26944 10.0128 7.73351 9.91463 7.42323C9.59975 6.42817 8.57659 5.82992 7.5649 6.04937ZM8.35482 7.43964C8.41768 7.48218 8.50758 7.57207 8.55455 7.63937C8.6296 7.7468 8.64001 7.79093 8.64001 8.00148C8.64001 8.21202 8.6296 8.25616 8.55455 8.36359C8.50758 8.43088 8.41718 8.52112 8.35367 8.5641C8.25549 8.63058 8.20257 8.64224 7.99925 8.64224C7.79592 8.64224 7.743 8.63058 7.64483 8.5641C7.39262 8.39338 7.27747 8.05993 7.37186 7.77384C7.41481 7.64378 7.596 7.44892 7.73078 7.38791C7.88528 7.31799 8.21551 7.34534 8.35482 7.43964Z" fill="#33357F"/>
</svg>
