<svg width="21" height="20" viewBox="0 0 21 20" fill="none" xmlns="http://www.w3.org/2000/svg">
<path fill-rule="evenodd" clip-rule="evenodd" d="M8.0684 1.20025C7.91113 1.34256 7.74586 1.47578 7.5734 1.59925C7.2754 1.79925 6.9404 1.93725 6.5884 2.00725C6.4354 2.03725 6.2754 2.05025 5.9564 2.07525C5.1554 2.13925 4.7544 2.17125 4.4204 2.28925C4.0385 2.42409 3.69164 2.64272 3.40525 2.9291C3.11887 3.21548 2.90024 3.56235 2.7654 3.94425C2.6474 4.27825 2.6154 4.67925 2.5514 5.48025C2.5405 5.69202 2.51779 5.90301 2.4834 6.11225C2.4134 6.46425 2.2754 6.79925 2.0754 7.09725C1.9884 7.22725 1.8844 7.34925 1.6764 7.59225C1.1554 8.20425 0.894404 8.51025 0.741404 8.83025C0.388404 9.57025 0.388404 10.4303 0.741404 11.1703C0.894404 11.4903 1.1554 11.7963 1.6764 12.4083C1.8844 12.6513 1.9884 12.7733 2.0754 12.9033C2.2754 13.2013 2.4134 13.5363 2.4834 13.8883C2.5134 14.0413 2.5264 14.2013 2.5514 14.5203C2.6154 15.3213 2.6474 15.7223 2.7654 16.0563C2.90024 16.4382 3.11887 16.785 3.40525 17.0714C3.69164 17.3578 4.0385 17.5764 4.4204 17.7113C4.7544 17.8293 5.1554 17.8613 5.9564 17.9253C6.2754 17.9503 6.4354 17.9633 6.5884 17.9933C6.9404 18.0633 7.2754 18.2023 7.5734 18.4013C7.7034 18.4883 7.8254 18.5923 8.0684 18.8003C8.6804 19.3213 8.9864 19.5823 9.3064 19.7353C10.0464 20.0883 10.9064 20.0883 11.6464 19.7353C11.9664 19.5823 12.2724 19.3213 12.8844 18.8003C13.1274 18.5923 13.2494 18.4883 13.3794 18.4013C13.6774 18.2013 14.0124 18.0633 14.3644 17.9933C14.5174 17.9633 14.6774 17.9503 14.9964 17.9253C15.7974 17.8613 16.1984 17.8293 16.5324 17.7113C16.9143 17.5764 17.2612 17.3578 17.5476 17.0714C17.8339 16.785 18.0526 16.4382 18.1874 16.0563C18.3054 15.7223 18.3374 15.3213 18.4014 14.5203C18.4264 14.2013 18.4394 14.0413 18.4694 13.8883C18.5394 13.5363 18.6784 13.2013 18.8774 12.9033C18.9644 12.7733 19.0684 12.6513 19.2764 12.4083C19.7974 11.7963 20.0584 11.4903 20.2114 11.1703C20.5644 10.4303 20.5644 9.57025 20.2114 8.83025C20.0584 8.51025 19.7974 8.20425 19.2764 7.59225C19.1341 7.43498 19.0009 7.26971 18.8774 7.09725C18.6776 6.79914 18.5389 6.46434 18.4694 6.11225C18.435 5.90301 18.4123 5.69202 18.4014 5.48025C18.3374 4.67925 18.3054 4.27825 18.1874 3.94425C18.0526 3.56235 17.8339 3.21548 17.5476 2.9291C17.2612 2.64272 16.9143 2.42409 16.5324 2.28925C16.1984 2.17125 15.7974 2.13925 14.9964 2.07525C14.7846 2.06434 14.5736 2.04164 14.3644 2.00725C14.0123 1.93774 13.6775 1.79906 13.3794 1.59925C13.2071 1.47552 13.0419 1.34231 12.8844 1.20025C12.2724 0.679252 11.9664 0.418252 11.6464 0.265252C11.2811 0.0906332 10.8813 0 10.4764 0C10.0715 0 9.67172 0.0906332 9.3064 0.265252C8.9864 0.418252 8.6804 0.679252 8.0684 1.20025ZM14.8494 7.86325C14.9907 7.70856 15.067 7.50533 15.0623 7.29585C15.0575 7.08636 14.9722 6.88677 14.824 6.73861C14.6759 6.59045 14.4763 6.50512 14.2668 6.5004C14.0573 6.49568 13.8541 6.57192 13.6994 6.71325L8.8494 11.5633L7.2534 9.96825C7.09871 9.82692 6.89548 9.75068 6.686 9.7554C6.47652 9.76013 6.27692 9.84545 6.12876 9.99361C5.9806 10.1418 5.89528 10.3414 5.89055 10.5508C5.88583 10.7603 5.96207 10.9636 6.1034 11.1183L8.2734 13.2883C8.42601 13.4405 8.6328 13.5261 8.8484 13.5261C9.064 13.5261 9.2708 13.4405 9.4234 13.2883L14.8504 7.86325H14.8494Z" fill="#2299DD"/>
</svg>
