<svg width="682" height="681" viewBox="0 0 682 681" fill="none" xmlns="http://www.w3.org/2000/svg">
<path fill-rule="evenodd" clip-rule="evenodd" d="M369.853 66.5483C366.388 65.9791 361.598 65.8695 344.08 65.8695H337.796C324.506 65.8695 320.935 65.9357 318.361 66.2628C296.08 69.0951 278.535 86.6398 275.703 108.921C275.376 111.494 275.31 115.066 275.31 128.356C275.31 143.48 275.32 149.914 275.634 156.116C277.901 200.797 291.996 244.073 316.478 281.518C319.876 286.716 323.658 291.922 332.565 304.145L431.066 439.318C461.95 481.701 478.59 532.79 478.59 585.231C478.59 638.036 435.783 680.843 382.978 680.843H345.775C344.83 680.843 343.898 680.843 342.98 680.844C327.93 680.85 316.354 680.855 306.089 679.09C255.521 670.392 215.915 630.786 207.217 580.218C205.452 569.953 205.457 558.377 205.463 543.327C205.464 542.409 205.464 541.477 205.464 540.532V476.536H127.267C126.646 476.536 126.034 476.536 125.429 476.537C115.967 476.54 108.506 476.542 101.82 475.763C48.8528 469.59 7.07714 427.814 0.903868 374.847C0.124719 368.161 0.127165 360.7 0.130266 351.238C0.130464 350.633 0.130667 350.021 0.130667 349.4C0.130667 348.722 0.130506 348.055 0.130346 347.397C0.127554 335.825 0.125482 327.251 1.01431 319.625C8.06935 259.092 55.8121 211.349 116.345 204.294C123.972 203.405 132.545 203.407 144.117 203.41C144.775 203.41 145.443 203.41 146.12 203.41H166.158C184.312 203.41 199.028 218.127 199.028 236.28C199.028 254.433 184.312 269.15 166.158 269.15H146.12C131.672 269.15 127.267 269.205 123.956 269.591C93.7002 273.117 69.8377 296.98 66.3115 327.235C65.9255 330.547 65.8698 334.952 65.8698 349.4C65.8698 361.594 65.9255 364.872 66.201 367.236C68.8455 389.926 86.7409 407.821 109.431 410.466C111.794 410.741 115.073 410.797 127.267 410.797H226.014C226.184 410.797 226.376 410.797 226.586 410.796C228.812 410.79 233.154 410.778 237.153 411.316C242.475 412.031 251.744 414.201 259.772 422.229C267.799 430.256 269.969 439.525 270.685 444.848C271.222 448.846 271.21 453.188 271.204 455.414C271.204 455.624 271.203 455.816 271.203 455.987V540.532C271.203 559.686 271.323 565.109 272.005 569.075C275.984 592.206 294.101 610.323 317.232 614.302C321.198 614.984 326.621 615.104 345.775 615.104H382.978C399.476 615.104 412.851 601.729 412.851 585.231C412.851 546.704 400.626 509.171 377.936 478.034L278.867 342.082C270.689 330.859 265.874 324.251 261.455 317.492C230.601 270.3 212.836 215.758 209.979 159.447C209.57 151.382 209.57 143.206 209.571 129.319V128.356C209.571 127.679 209.57 127.012 209.57 126.353C209.567 116.041 209.564 107.909 210.489 100.631C217.1 48.6171 258.057 7.66021 310.072 1.04841C317.349 0.12334 325.481 0.126243 335.793 0.129928C336.452 0.130165 337.119 0.130401 337.796 0.130401H344.08C344.963 0.130401 345.833 0.130016 346.691 0.129638C360.34 0.123619 371.015 0.118912 380.509 1.6787C430.062 9.81918 468.901 48.6586 477.042 98.2109C478.601 107.706 478.597 118.38 478.591 132.029C478.59 132.887 478.59 133.758 478.59 134.64V323.905C478.59 371.894 517.493 410.797 565.482 410.797C593.455 410.797 616.131 388.121 616.131 360.148V325.479C616.131 318.38 616.112 316.469 616.018 315.088C614.355 290.501 594.779 270.926 570.193 269.262C568.811 269.168 566.9 269.15 559.802 269.15H530.215C512.062 269.15 497.346 254.433 497.346 236.28C497.346 218.127 512.062 203.41 530.215 203.41L560.872 203.41C566.381 203.409 570.723 203.408 574.631 203.673C632.027 207.556 677.724 253.253 681.607 310.649C681.872 314.557 681.871 318.899 681.87 324.408L681.87 360.148C681.87 424.428 629.761 476.536 565.482 476.536C481.186 476.536 412.851 408.201 412.851 323.905V134.64C412.851 117.122 412.741 112.332 412.172 108.868C408.603 87.1441 391.576 70.1171 369.853 66.5483Z" fill="white"/>
</svg>
